<?xml version="1.0" encoding="utf-8"?>
<!-- Generator: Adobe Illustrator 16.0.0, SVG Export Plug-In . SVG Version: 6.00 Build 0)  -->
<!DOCTYPE svg PUBLIC "-//W3C//DTD SVG 1.1//EN" "http://www.w3.org/Graphics/SVG/1.1/DTD/svg11.dtd">
<svg version="1.1" id="Layer_1" xmlns="http://www.w3.org/2000/svg" xmlns:xlink="http://www.w3.org/1999/xlink" x="0px" y="0px"
	 width="500px" height="500px" viewBox="0 0 500 500" enable-background="new 0 0 500 500" xml:space="preserve">
<circle fill="#231F20" cx="250" cy="250" r="250"/>
<g enable-background="new    ">
	<path fill="#FFFFFF" d="M131.562,193.32v69.84h41.76V279h-60.6v-85.68H131.562z"/>
	<path fill="#FFFFFF" d="M182.44,234.54c1.519-4.039,3.679-7.479,6.48-10.32c2.799-2.839,6.16-5.04,10.08-6.6
		c3.919-1.561,8.319-2.34,13.2-2.34c4.878,0,9.3,0.779,13.26,2.34c3.96,1.56,7.339,3.761,10.14,6.6
		c2.8,2.841,4.959,6.281,6.48,10.32c1.519,4.041,2.279,8.541,2.279,13.5c0,4.961-0.761,9.44-2.279,13.44
		c-1.521,4.001-3.681,7.421-6.48,10.26c-2.801,2.841-6.18,5.021-10.14,6.54s-8.381,2.279-13.26,2.279
		c-4.881,0-9.281-0.761-13.2-2.279c-3.92-1.519-7.281-3.699-10.08-6.54c-2.801-2.839-4.961-6.259-6.48-10.26
		c-1.521-4-2.28-8.479-2.28-13.44C180.161,243.081,180.92,238.581,182.44,234.54z M197.92,255.3c0.48,2.36,1.299,4.481,2.46,6.36
		c1.159,1.881,2.7,3.381,4.62,4.5c1.92,1.121,4.32,1.68,7.2,1.68s5.299-0.559,7.26-1.68c1.959-1.119,3.52-2.619,4.68-4.5
		c1.159-1.879,1.98-4,2.46-6.36c0.48-2.358,0.72-4.779,0.72-7.26c0-2.479-0.24-4.92-0.72-7.32c-0.48-2.399-1.301-4.519-2.46-6.359
		c-1.161-1.84-2.721-3.34-4.68-4.5c-1.961-1.159-4.38-1.74-7.26-1.74s-5.28,0.581-7.2,1.74c-1.92,1.16-3.461,2.66-4.62,4.5
		c-1.161,1.841-1.98,3.96-2.46,6.359c-0.48,2.4-0.72,4.842-0.72,7.32C197.201,250.521,197.44,252.941,197.92,255.3z"/>
	<path fill="#FFFFFF" d="M314.02,283.56c-0.681,3.199-2.141,6.181-4.38,8.94c-2.24,2.76-5.48,5.1-9.72,7.02
		c-4.241,1.921-9.921,2.881-17.04,2.881c-3.041,0-6.141-0.381-9.3-1.141c-3.161-0.761-6.041-1.94-8.641-3.54
		c-2.601-1.601-4.76-3.66-6.479-6.18c-1.722-2.521-2.7-5.541-2.94-9.06h16.92c0.799,3.198,2.359,5.418,4.681,6.659
		c2.319,1.239,4.999,1.86,8.04,1.86c4.8,0,8.299-1.44,10.5-4.32c2.199-2.88,3.259-6.521,3.18-10.92v-8.16h-0.24
		c-1.841,3.281-4.46,5.7-7.859,7.261c-3.401,1.56-6.98,2.34-10.74,2.34c-4.641,0-8.64-0.819-12-2.46
		c-3.36-1.639-6.12-3.88-8.28-6.721c-2.16-2.838-3.74-6.159-4.74-9.96c-1.001-3.798-1.5-7.818-1.5-12.06
		c0-3.999,0.58-7.86,1.74-11.58c1.159-3.72,2.859-6.999,5.101-9.84c2.238-2.839,5.019-5.1,8.34-6.78
		c3.318-1.68,7.14-2.52,11.46-2.52c4.08,0,7.659,0.761,10.74,2.279c3.078,1.521,5.658,4.08,7.739,7.681h0.24v-8.28h16.2v58.08
		C315.04,277.521,314.698,280.359,314.02,283.56z M290.68,262.92c1.84-0.96,3.36-2.238,4.561-3.84c1.199-1.6,2.1-3.42,2.699-5.46
		c0.601-2.04,0.9-4.18,0.9-6.42c0-2.56-0.24-4.98-0.72-7.26c-0.48-2.28-1.281-4.3-2.4-6.061c-1.121-1.759-2.601-3.159-4.439-4.2
		c-1.842-1.038-4.161-1.56-6.96-1.56c-2.4,0-4.461,0.479-6.181,1.439c-1.721,0.96-3.161,2.262-4.319,3.9
		c-1.161,1.641-2.001,3.521-2.521,5.64c-0.521,2.121-0.78,4.341-0.78,6.66c0,2.241,0.22,4.461,0.66,6.66
		c0.439,2.201,1.2,4.182,2.28,5.94c1.08,1.761,2.499,3.2,4.26,4.319c1.759,1.121,3.96,1.681,6.601,1.681
		C286.72,264.36,288.839,263.88,290.68,262.92z"/>
	<path fill="#FFFFFF" d="M329.079,234.54c1.519-4.039,3.679-7.479,6.48-10.32c2.799-2.839,6.159-5.04,10.08-6.6
		c3.918-1.561,8.319-2.34,13.199-2.34c4.879,0,9.301,0.779,13.261,2.34c3.96,1.56,7.339,3.761,10.14,6.6
		c2.8,2.841,4.959,6.281,6.48,10.32c1.519,4.041,2.279,8.541,2.279,13.5c0,4.961-0.761,9.44-2.279,13.44
		c-1.521,4.001-3.681,7.421-6.48,10.26c-2.801,2.841-6.18,5.021-10.14,6.54s-8.382,2.279-13.261,2.279
		c-4.88,0-9.281-0.761-13.199-2.279c-3.921-1.519-7.281-3.699-10.08-6.54c-2.802-2.839-4.962-6.259-6.48-10.26
		c-1.521-4-2.28-8.479-2.28-13.44C326.799,243.081,327.559,238.581,329.079,234.54z M344.56,255.3c0.479,2.36,1.299,4.481,2.46,6.36
		c1.158,1.881,2.7,3.381,4.62,4.5c1.92,1.121,4.319,1.68,7.199,1.68c2.881,0,5.299-0.559,7.261-1.68
		c1.959-1.119,3.519-2.619,4.68-4.5c1.159-1.879,1.979-4,2.46-6.36c0.48-2.358,0.72-4.779,0.72-7.26c0-2.479-0.239-4.92-0.72-7.32
		c-0.48-2.399-1.301-4.519-2.46-6.359c-1.161-1.84-2.721-3.34-4.68-4.5c-1.962-1.159-4.38-1.74-7.261-1.74
		c-2.88,0-5.279,0.581-7.199,1.74c-1.92,1.16-3.462,2.66-4.62,4.5c-1.161,1.841-1.98,3.96-2.46,6.359
		c-0.48,2.4-0.721,4.842-0.721,7.32C343.839,250.521,344.079,252.941,344.56,255.3z"/>
</g>
</svg>
